<?xml version="1.0" encoding="utf-8"?>
<!-- Generator: Adobe Illustrator 27.0.0, SVG Export Plug-In . SVG Version: 6.00 Build 0)  -->
<svg version="1.1" id="Layer_1" xmlns="http://www.w3.org/2000/svg" xmlns:xlink="http://www.w3.org/1999/xlink" x="0px" y="0px"
	 viewBox="0 0 1000 1000" style="enable-background:new 0 0 1000 1000;" xml:space="preserve">
<style type="text/css">
	.st0{fill:#FA9902;}
	.st1{fill:#464545;}
</style>
<path class="st0" d="M980.6,625.2c-7.9-0.6-15.8-0.8-23.7-0.2c-6.3,0.5-8.8-1.7-9.8-7.9c-3-19.2-11.8-36.1-22.6-51.9
	c-21.4-31.2-48.4-57.2-78.7-79.2c-14.6-10.6-18.5-21.1-13.2-37.7c3.9-12.1,3.4-25-1-37.1c-5.1-14.1-15.8-18.2-29.1-11.7
	c-20.3,9.8-29.6,28.5-25.4,50.6c2.9,15.4,8.2,30,17.8,42.3c7.5,9.6,9.1,18.7,7.1,30.6c-6.2,36.4-10.9,73.1-26,107.4
	c-10,22.8-20.4,45.3-39,62.6c-15.9,14.7-33.1,12.4-44-6.3c-9.3-16.2-17.2-33.1-26.3-49.4c-3.8-6.7-2.8-10.1,3.8-14.5
	c34.1-23,59.6-52.7,69.6-93.7c4.3-17.8,4.9-35.5-2.5-52.8c-4.6-10.6-12-16.1-24.2-15.8c-20.5,0.5-37.5,9.1-52.8,21.6
	c-29.1,23.7-47.7,55.2-63.9,88.4c-1.5,3.1-1.9,7.2-6.1,9.2c0.5-4.1,1.1-7.6,1.5-11.2c8.1-88.5,24-175.6,45.7-261.7
	c16.9-67.2,37.7-133.2,61.9-198.1c3.9-10.5,2-14.1-7.9-14.4C673,93.3,654.4,94.2,636,98c-8.4,1.8-13.4,6-16.3,14.8
	c-53.6,163.4-82,331.4-93.6,502.5c-1.7,24.8-12.1,45.4-26.4,64.6c-5.4,7.3-12.8,13.6-22.9,11c-9.3-2.4-11.5-11.3-13.6-19.2
	c-4.7-18.2-4.4-37-5.6-55.6c-0.6-9.5,3.1-12.3,11.7-13.5c9-1.3,18.7-1.4,28.9-7.7c-11.8-2-21.3-3.9-30.8-5.1
	c-6.8-0.8-9.6-3.1-9.4-10.8c1.7-46.4,7.1-92.4,14.9-138.1c13.7-80.9,35.7-159.6,61.6-237.3c4.1-12.4,1.3-16.6-11.8-17
	c-14-0.5-28,0.3-41.9,2.3c-12.4,1.8-20.1,7.3-24.4,20.3c-38.8,118.4-60.7,239.9-66.3,364.4c-0.4,9-3.4,10.5-11.3,9.9
	c-24-1.9-48-3.6-72.1-4.4c-9.4-0.3-9.4-3.5-7-11c8.9-27.3,15.3-55.3,20.8-83.5c11.7-59.7,17.6-120.1,20.9-180.7
	c2-36.2,3.3-72.5,2.9-108.9c-0.1-7.7-2.2-13.1-10.7-12.6c-20.1,1.3-40.1,3.3-59.5,9.3c-7.3,2.2-9.7,6.8-9.6,14.5
	c0.5,24.4,0.5,48.9,0.4,73.3c-0.5,91.4-4.5,182.5-19.9,272.7c-3.9,22.6-3.5,22.7-26.3,22.6c-39.9-0.1-39.9-0.1-50.8,34.5
	c-4.9,15.6-0.6,21.8,15.7,21.5c11.8-0.2,23.7-1.4,35.5-2c3.4-0.2,7.6-1.2,5.4,5.3c-10.3,29.7-22.5,58.4-44.7,81.5
	c-25.2,26.2-58.1,33-92,19.7c-31.8-12.5-53.3-43.3-54.2-77.5c-1.7-67,69.5-126.5,135.4-111.8c12.9,2.9,18.7-0.9,24-10.4
	c2.3-4.1,4.7-8.1,6.6-12.3c8.3-18.5,4.1-25.8-16-25.6c-45.3,0.4-86.7,13.2-121.3,43c-42.7,36.9-60.7,82.8-45.6,138.9
	c14.1,52.6,53.3,81.6,107.5,78.6c36.6-2,67.6-18.2,93.9-43.2c24.9-23.6,42-52.7,56.6-83.3c2.4-5.1,5.1-7.6,11-8.1
	c27.9-2.3,55.8-5.3,83.7-7.8c19.9-1.8,19.8-1.6,20.1,18.9c0.3,24.5,4.3,48,19.8,68c17,21.9,43.8,27.6,68.5,14.9
	c12.4-6.4,22.1-15.9,30.3-27c4.6-6.2,8.8-12.7,13.5-19.5c0,16.5,0,32.1,0,47.7c0,8.9,4.7,11.6,12.6,8.6c14.8-5.6,27.4-14,35-28.6
	c7.1-13.5,12.1-27.6,14.4-42.6c6.2-41.3,23.1-78.2,46-112.6c6.2-9.3,13.6-17.7,23.5-23.4c9.1-5.3,16.2-2.2,18.2,8.1
	c0.7,3.8,0.7,8,0,11.8c-4,22.4-13.5,42.3-29.3,58.9c-11,11.6-23.7,20.9-37.6,28.5c-4.3,2.4-6.1,4.2-4.3,9.9
	c7.6,24,18.8,45.9,36.1,64.2c34.8,37,71.2,37.5,107.5,1.8c29.6-29,46.7-65,57.6-104.3c7.1-25.5,9.1-52.1,16.4-79
	c10.2,7.8,17.8,15.9,25.1,24.3c19.2,22.1,32.5,47.2,37.8,76.2c1.6,8.6,0.8,13.7-9.7,15.8c-12.9,2.7-25.4,7.5-37.8,12.2
	c-13.5,5.1-25.9,12.4-35.8,23.4c-11.3,12.5-14.6,27.1-9.8,43c4.6,15.2,16.8,21.4,31.5,24.3c51.5,10,123.5-24.3,128.7-93.8
	c0.5-6.6,2.7-8.8,9-8.5c7.5,0.3,15.1,0.1,22.6-0.1c3.9-0.1,8.9,0,9.2-5.2C989.2,627,984.4,625.5,980.6,625.2z M835.3,700.3
	c-1.2-0.1-4.5,0-7.6-0.7c-13-2.9-16.9-13.3-9.4-24.3c3.8-5.5,9-9.2,14.8-12.1c13.2-6.4,27.3-10.5,41.3-14.6c4.2-1.2,7.3-1.5,7.5,4.9
	C883.1,680.5,864.4,700.3,835.3,700.3z"/>
<g>
	<path class="st1" d="M157.6,831.7l0.6,11.8h-1.4c-0.3-2.1-0.7-3.6-1.1-4.5c-0.8-1.4-1.8-2.5-3.1-3.2c-1.3-0.7-3-1-5.1-1h-7.2v38.6
		c0,3.1,0.3,5,1,5.8c1,1,2.4,1.6,4.4,1.6h1.8v1.4h-21.7v-1.4h1.8c2.2,0,3.7-0.6,4.6-1.9c0.6-0.8,0.8-2.6,0.8-5.4v-38.6h-6.1
		c-2.4,0-4.1,0.2-5.1,0.5c-1.3,0.5-2.4,1.4-3.4,2.7c-0.9,1.3-1.5,3.2-1.7,5.4h-1.4l0.6-11.8H157.6z"/>
	<path class="st1" d="M227.1,834.4v20h11.2c2.9,0,4.9-0.4,5.8-1.3c1.3-1.1,2-3.2,2.2-6h1.4v17.6h-1.4c-0.4-2.5-0.7-4-1.1-4.7
		c-0.5-0.9-1.2-1.6-2.2-2c-1-0.5-2.6-0.7-4.7-0.7h-11.2v16.6c0,2.2,0.1,3.6,0.3,4.1c0.2,0.5,0.6,0.9,1.1,1.2
		c0.5,0.3,1.5,0.4,2.9,0.4h8.7c2.9,0,5-0.2,6.3-0.6c1.3-0.4,2.6-1.2,3.8-2.3c1.6-1.5,3.2-3.9,4.8-7h1.5l-4.4,12.7h-39.4v-1.4h1.8
		c1.2,0,2.3-0.3,3.4-0.9c0.8-0.4,1.4-1,1.6-1.8c0.3-0.8,0.4-2.4,0.4-4.9v-32.8c0-3.2-0.3-5.2-1-5.9c-0.9-1-2.4-1.5-4.5-1.5h-1.8
		v-1.4h39.4l0.6,11.1H251c-0.5-2.7-1.1-4.5-1.8-5.5c-0.6-1-1.6-1.8-2.8-2.3c-1-0.4-2.8-0.6-5.3-0.6H227.1z"/>
	<path class="st1" d="M355.4,830.5l1.2,17.2h-1.2c-1.6-5.1-3.8-8.8-6.7-11.1c-2.9-2.3-6.4-3.4-10.4-3.4c-3.4,0-6.5,0.9-9.2,2.6
		c-2.7,1.7-4.9,4.4-6.5,8.1c-1.6,3.7-2.4,8.4-2.4,13.9c0,4.6,0.7,8.5,2.2,11.9c1.5,3.4,3.7,5.9,6.7,7.7c3,1.8,6.4,2.7,10.2,2.7
		c3.3,0,6.2-0.7,8.8-2.1c2.5-1.4,5.3-4.2,8.4-8.4l1.2,0.7c-2.6,4.5-5.6,7.8-9,9.9c-3.4,2.1-7.5,3.1-12.2,3.1c-8.5,0-15-3.1-19.7-9.3
		c-3.5-4.6-5.2-10.1-5.2-16.3c0-5,1.1-9.7,3.4-13.9c2.3-4.2,5.4-7.5,9.4-9.8c4-2.3,8.4-3.5,13.1-3.5c3.7,0,7.3,0.9,10.9,2.7
		c1.1,0.5,1.8,0.8,2.3,0.8c0.7,0,1.3-0.2,1.8-0.7c0.7-0.7,1.1-1.6,1.4-2.8H355.4z"/>
	<path class="st1" d="M427.2,855.1h23.7v-14.4c0-2.6-0.2-4.3-0.5-5.1c-0.3-0.6-0.8-1.2-1.6-1.6c-1.1-0.6-2.2-0.9-3.4-0.9h-1.8v-1.4
		h21.9v1.4h-1.8c-1.2,0-2.3,0.3-3.4,0.9c-0.8,0.4-1.4,1-1.6,1.8c-0.3,0.8-0.4,2.5-0.4,4.9v32.6c0,2.6,0.2,4.2,0.5,5.1
		c0.3,0.6,0.8,1.2,1.5,1.6c1.1,0.6,2.3,0.9,3.5,0.9h1.8v1.4h-21.9v-1.4h1.8c2.1,0,3.6-0.6,4.6-1.8c0.6-0.8,0.9-2.7,0.9-5.7v-15.4
		h-23.7v15.4c0,2.6,0.2,4.2,0.5,5.1c0.3,0.6,0.8,1.2,1.6,1.6c1.1,0.6,2.2,0.9,3.4,0.9h1.8v1.4h-21.9v-1.4h1.8c2.1,0,3.6-0.6,4.6-1.8
		c0.6-0.8,0.9-2.7,0.9-5.7v-32.6c0-2.6-0.2-4.3-0.5-5.1c-0.3-0.6-0.8-1.2-1.5-1.6c-1.1-0.6-2.3-0.9-3.5-0.9h-1.8v-1.4h21.9v1.4h-1.8
		c-1.2,0-2.3,0.3-3.4,0.9c-0.8,0.4-1.3,1-1.6,1.8c-0.3,0.8-0.5,2.5-0.5,4.9V855.1z"/>
	<path class="st1" d="M562.1,868.2l1.2,0.3l-4.4,13.7h-39.6v-1.4h1.9c2.2,0,3.7-0.7,4.6-2.1c0.5-0.8,0.8-2.6,0.8-5.5v-32.6
		c0-3.2-0.4-5.1-1.1-5.9c-1-1.1-2.4-1.6-4.4-1.6h-1.9v-1.4h23.1v1.4c-2.7,0-4.6,0.2-5.7,0.7s-1.8,1.2-2.2,2
		c-0.4,0.8-0.6,2.7-0.6,5.7v31.7c0,2.1,0.2,3.5,0.6,4.2c0.3,0.5,0.8,0.9,1.4,1.2c0.6,0.2,2.6,0.4,5.9,0.4h3.7c3.9,0,6.7-0.3,8.3-0.9
		c1.6-0.6,3-1.6,4.3-3C559.5,873.6,560.8,871.3,562.1,868.2z"/>
	<path class="st1" d="M651.2,865.3h-19.8l-3.5,8c-0.9,2-1.3,3.4-1.3,4.4c0,0.8,0.4,1.4,1.1,2c0.7,0.6,2.3,1,4.8,1.1v1.4h-16.1v-1.4
		c2.1-0.4,3.5-0.9,4.1-1.5c1.3-1.2,2.7-3.6,4.3-7.3l18-41.6h1.3l17.8,42c1.4,3.4,2.7,5.6,3.9,6.6c1.2,1,2.8,1.6,4.9,1.7v1.4h-20.2
		v-1.4c2-0.1,3.4-0.4,4.1-1c0.7-0.6,1.1-1.3,1.1-2.1c0-1.1-0.5-2.8-1.5-5.2L651.2,865.3z M650.1,862.5l-8.7-20.4l-8.9,20.4H650.1z"
		/>
	<path class="st1" d="M758.1,856.4c3.5,0.7,6.2,1.9,8,3.6c2.4,2.3,3.7,5.1,3.7,8.4c0,2.5-0.8,4.9-2.4,7.2c-1.6,2.3-3.8,4-6.6,5
		c-2.8,1.1-7.1,1.6-12.8,1.6h-24.1v-1.4h1.9c2.1,0,3.7-0.7,4.6-2c0.6-0.9,0.9-2.7,0.9-5.5v-32.6c0-3.1-0.4-5.1-1.1-5.9
		c-1-1.1-2.4-1.6-4.4-1.6h-1.9v-1.4h22.1c4.1,0,7.4,0.3,9.9,0.9c3.8,0.9,6.6,2.5,8.6,4.7c2,2.3,3,4.9,3,7.8c0,2.5-0.8,4.8-2.3,6.8
		C763.4,853.9,761.2,855.4,758.1,856.4z M738.4,854.4c0.9,0.2,2,0.3,3.2,0.4c1.2,0.1,2.5,0.1,3.9,0.1c3.7,0,6.4-0.4,8.3-1.2
		c1.8-0.8,3.3-2,4.2-3.6s1.5-3.4,1.5-5.3c0-3-1.2-5.5-3.7-7.6c-2.4-2.1-6-3.1-10.7-3.1c-2.5,0-4.8,0.3-6.8,0.8V854.4z M738.4,878.5
		c2.9,0.7,5.8,1,8.6,1c4.5,0,8-1,10.4-3s3.6-4.5,3.6-7.5c0-2-0.5-3.8-1.6-5.7c-1.1-1.8-2.8-3.2-5.3-4.3c-2.4-1-5.5-1.6-9-1.6
		c-1.6,0-2.9,0-4,0.1c-1.1,0.1-2,0.1-2.7,0.3V878.5z"/>
	<path class="st1" d="M860.2,830.5V848h-1.4c-0.5-3.4-1.3-6-2.4-8s-2.8-3.6-5-4.7s-4.4-1.8-6.7-1.8c-2.6,0-4.8,0.8-6.5,2.4
		c-1.7,1.6-2.6,3.4-2.6,5.4c0,1.5,0.5,2.9,1.6,4.2c1.6,1.9,5.3,4.3,11.1,7.4c4.8,2.5,8,4.5,9.8,5.8s3.1,2.9,4,4.8
		c0.9,1.8,1.4,3.8,1.4,5.8c0,3.8-1.5,7.1-4.5,9.9c-3,2.8-6.9,4.2-11.6,4.2c-1.5,0-2.9-0.1-4.2-0.3c-0.8-0.1-2.4-0.6-4.8-1.4
		c-2.4-0.8-4-1.2-4.7-1.2c-0.6,0-1.1,0.2-1.5,0.6s-0.6,1.1-0.8,2.3h-1.4V866h1.4c0.7,3.6,1.5,6.3,2.6,8.1c1.1,1.8,2.8,3.3,5.1,4.5
		c2.3,1.2,4.8,1.8,7.5,1.8c3.1,0,5.6-0.8,7.4-2.5s2.7-3.6,2.7-5.8c0-1.2-0.3-2.5-1-3.8c-0.7-1.3-1.8-2.4-3.2-3.5
		c-1-0.7-3.7-2.3-8-4.7c-4.4-2.4-7.5-4.4-9.3-5.8c-1.8-1.4-3.2-3-4.2-4.8c-1-1.7-1.4-3.7-1.4-5.7c0-3.6,1.4-6.7,4.2-9.4
		c2.8-2.6,6.4-3.9,10.7-3.9c2.7,0,5.6,0.7,8.6,2c1.4,0.6,2.4,0.9,3,0.9c0.7,0,1.2-0.2,1.6-0.6c0.4-0.4,0.7-1.2,1-2.3H860.2z"/>
</g>
</svg>
